<svg xmlns="http://www.w3.org/2000/svg" xmlns:xlink="http://www.w3.org/1999/xlink" width="1920" zoomAndPan="magnify" viewBox="0 0 1440 809.999993" height="1080" preserveAspectRatio="xMidYMid meet" version="1.2"><defs><clipPath id="366a04585e"><path d="M 659 410.945312 L 708.238281 410.945312 L 708.238281 467.230469 L 659 467.230469 Z M 659 410.945312 "/></clipPath><clipPath id="04b99304df"><path d="M 685.738281 421.050781 C 686.898438 421.050781 687.96875 421.058594 688.941406 421.089844 C 689.910156 421.121094 690.730469 421.25 691.390625 421.5 C 692 421.800781 692.429688 422.261719 692.679688 422.878906 C 692.929688 423.5 693.050781 424.160156 693.050781 424.859375 C 693.050781 425.960938 692.910156 427.011719 692.628906 428 C 692.410156 429 692.058594 430.011719 691.589844 431.03125 C 691.121094 432.050781 690.410156 432.941406 689.46875 433.679688 C 688.140625 434.53125 686.730469 434.960938 685.230469 434.988281 C 683.730469 435.019531 682.289062 435.050781 680.910156 435.101562 L 684.160156 421.050781 Z M 671.871094 410.949219 L 659 467.050781 L 673.621094 467.050781 L 678.601562 445.210938 C 679.53125 445.179688 680.46875 445.160156 681.421875 445.160156 C 681.878906 445.160156 682.339844 445.160156 682.800781 445.167969 C 683.160156 445.179688 683.511719 445.179688 683.871094 445.179688 C 684.929688 445.179688 685.980469 445.148438 687.039062 445.101562 C 688.449219 445.019531 689.859375 444.859375 691.269531 444.609375 C 692.679688 444.359375 694.078125 443.960938 695.460938 443.410156 C 697.289062 442.710938 702.660156 438.21875 703.601562 436.828125 C 704.539062 435.441406 705.308594 433.949219 705.929688 432.378906 C 706.550781 430.808594 707.011719 429.28125 707.339844 427.78125 C 707.558594 426.78125 707.738281 425.808594 707.878906 424.859375 C 708.019531 423.910156 708.089844 422.988281 708.089844 422.089844 C 708.089844 420.890625 707.949219 419.761719 707.679688 418.691406 C 707.410156 417.621094 706.878906 416.578125 706.101562 415.589844 C 705.320312 414.539062 704.269531 413.710938 702.941406 413.078125 C 701.609375 412.449219 700.167969 412 698.621094 411.699219 C 697.070312 411.398438 695.46875 411.199219 693.800781 411.101562 C 692.128906 411 690.621094 410.949219 689.230469 410.949219 Z M 671.871094 410.949219 "/></clipPath><clipPath id="6d5e13bc7a"><path d="M 696 410.945312 L 746 410.945312 L 746 467.230469 L 696 467.230469 Z M 696 410.945312 "/></clipPath><clipPath id="1b337d3c6d"><path d="M 723.601562 421.050781 C 725.917969 421.050781 727.667969 421.28125 728.828125 421.71875 C 729.988281 422.160156 730.570312 423.238281 730.570312 424.941406 C 730.570312 425.640625 730.429688 426.609375 730.148438 427.859375 C 729.980469 428.710938 729.71875 429.558594 729.359375 430.398438 C 729 431.238281 728.558594 432 728.03125 432.640625 C 727.5 433.28125 726.851562 433.808594 726.078125 434.210938 C 725.308594 434.609375 724.390625 434.808594 723.339844 434.808594 L 718.371094 434.808594 L 721.519531 421.050781 Z M 709.230469 410.949219 L 696.359375 467.050781 L 710.980469 467.050781 L 716.039062 444.910156 L 720.859375 444.910156 C 722.300781 445.011719 723.28125 445.460938 723.808594 446.261719 C 724.339844 447.058594 724.601562 448.101562 724.601562 449.398438 C 724.601562 449.648438 720.691406 466.398438 720.851562 467.050781 L 736.789062 467.050781 C 736.800781 466.949219 739.628906 447.78125 739.789062 446.628906 C 739.839844 446.378906 739.871094 446.160156 739.871094 445.960938 L 739.871094 445.359375 C 739.871094 443.769531 739.371094 442.46875 738.378906 441.46875 C 737.390625 440.46875 736 439.78125 734.230469 439.378906 L 734.308594 439.230469 C 747.25 439.230469 752.960938 410.960938 730.570312 410.960938 Z M 709.230469 410.949219 "/></clipPath><clipPath id="8d51c29ad4"><path d="M 765.546875 341.355469 L 780 341.355469 L 780 356 L 765.546875 356 Z M 765.546875 341.355469 "/></clipPath><clipPath id="83aea40ef0"><path d="M 773.078125 345.761719 C 773.289062 345.761719 773.5 345.78125 773.710938 345.808594 C 773.917969 345.839844 774.109375 345.898438 774.28125 345.988281 C 774.449219 346.078125 774.578125 346.199219 774.691406 346.351562 C 774.800781 346.5 774.851562 346.710938 774.851562 346.949219 C 774.851562 347.261719 774.800781 347.511719 774.691406 347.679688 C 774.578125 347.851562 774.441406 347.988281 774.25 348.078125 C 774.058594 348.171875 773.851562 348.21875 773.621094 348.238281 C 773.390625 348.261719 773.140625 348.269531 772.878906 348.269531 L 771.410156 348.269531 L 771.410156 345.761719 Z M 770.179688 344.71875 L 770.179688 352.820312 L 771.410156 352.820312 L 771.410156 349.308594 L 772.820312 349.308594 L 774.960938 352.820312 L 776.339844 352.820312 L 774.039062 349.25 C 774.339844 349.210938 774.609375 349.140625 774.871094 349.050781 C 775.128906 348.960938 775.351562 348.808594 775.539062 348.628906 C 775.730469 348.449219 775.878906 348.230469 775.988281 347.960938 C 776.101562 347.691406 776.148438 347.378906 776.148438 347.019531 C 776.148438 346.21875 775.910156 345.628906 775.441406 345.269531 C 774.96875 344.910156 774.25 344.71875 773.289062 344.71875 Z M 772.890625 342.921875 C 773.679688 342.921875 774.429688 343.070312 775.121094 343.371094 C 775.808594 343.671875 776.410156 344.078125 776.917969 344.601562 C 777.429688 345.121094 777.828125 345.738281 778.128906 346.449219 C 778.429688 347.160156 778.578125 347.929688 778.578125 348.761719 C 778.578125 349.601562 778.429688 350.378906 778.128906 351.101562 C 777.828125 351.820312 777.429688 352.441406 776.917969 352.960938 C 776.410156 353.480469 775.808594 353.890625 775.121094 354.179688 C 774.429688 354.46875 773.679688 354.628906 772.890625 354.628906 C 772.078125 354.628906 771.328125 354.480469 770.640625 354.179688 C 769.949219 353.878906 769.339844 353.46875 768.828125 352.960938 C 768.320312 352.449219 767.910156 351.820312 767.609375 351.101562 C 767.308594 350.378906 767.160156 349.601562 767.160156 348.761719 C 767.160156 347.929688 767.308594 347.160156 767.609375 346.449219 C 767.910156 345.738281 768.308594 345.121094 768.828125 344.601562 C 769.351562 344.078125 769.949219 343.671875 770.640625 343.371094 C 771.328125 343.070312 772.078125 342.921875 772.890625 342.921875 Z M 772.789062 341.75 C 771.859375 341.761719 770.980469 341.941406 770.148438 342.28125 C 769.28125 342.628906 768.53125 343.121094 767.878906 343.738281 C 767.230469 344.359375 766.71875 345.101562 766.339844 345.960938 C 765.960938 346.820312 765.769531 347.75 765.769531 348.761719 C 765.769531 349.769531 765.960938 350.710938 766.339844 351.570312 C 766.71875 352.429688 767.230469 353.171875 767.878906 353.800781 C 768.53125 354.429688 769.289062 354.910156 770.148438 355.269531 C 771.007812 355.628906 771.929688 355.800781 772.898438 355.800781 C 773.851562 355.800781 774.757812 355.621094 775.621094 355.269531 C 776.480469 354.921875 777.238281 354.429688 777.890625 353.800781 C 778.539062 353.171875 779.050781 352.429688 779.429688 351.570312 C 779.800781 350.730469 779.988281 349.808594 780 348.808594 L 780 348.691406 C 779.988281 347.710938 779.800781 346.800781 779.429688 345.949219 C 779.050781 345.089844 778.539062 344.351562 777.890625 343.730469 C 777.238281 343.109375 776.480469 342.621094 775.621094 342.269531 C 774.789062 341.929688 773.917969 341.75 773 341.738281 Z M 772.789062 341.75 "/></clipPath><clipPath id="b08bae1038"><path d="M 684 341.867188 L 763.5 341.867188 L 763.5 356.195312 L 684 356.195312 Z M 684 341.867188 "/></clipPath><clipPath id="97ecebbfeb"><path d="M 763.238281 341.980469 L 686.980469 341.980469 L 684.050781 356.191406 L 760.308594 356.191406 Z M 763.238281 341.980469 "/></clipPath><clipPath id="5a837d5ca0"><path d="M 691.351562 347 L 709.261719 347 L 709.261719 351.589844 L 691.351562 351.589844 Z M 691.351562 347 "/></clipPath><clipPath id="649196e05b"><path d="M 709.25 347.050781 L 692.230469 347.050781 L 691.578125 351.121094 L 708.589844 351.121094 Z M 709.25 347.050781 "/></clipPath><clipPath id="c9ada85bfc"><path d="M 714.378906 347 L 732.289062 347 L 732.289062 351.589844 L 714.378906 351.589844 Z M 714.378906 347 "/></clipPath><clipPath id="5a74ae18f9"><path d="M 732.167969 347.050781 L 715.148438 347.050781 L 714.5 351.121094 L 731.511719 351.121094 Z M 732.167969 347.050781 "/></clipPath><clipPath id="9b529e0e59"><path d="M 737 347 L 755.316406 347 L 755.316406 351.589844 L 737 351.589844 Z M 737 347 "/></clipPath><clipPath id="0f9043414f"><path d="M 755.039062 347.050781 L 738.019531 347.050781 L 737.371094 351.121094 L 754.390625 351.121094 Z M 755.039062 347.050781 "/></clipPath><clipPath id="78b9e2f5c6"><path d="M 672.421875 357.730469 L 760 357.730469 L 760 405.828125 L 672.421875 405.828125 Z M 672.421875 357.730469 "/></clipPath><clipPath id="27ed10b977"><path d="M 749.050781 405.820312 L 672.628906 405.820312 L 683.558594 357.949219 L 759.980469 357.949219 Z M 749.050781 405.820312 "/></clipPath><clipPath id="5ee88476d1"><path d="M 680.609375 363.359375 L 711.820312 363.359375 L 711.820312 399 L 680.609375 399 Z M 680.609375 363.359375 "/></clipPath><clipPath id="0c0d2d57cd"><path d="M 691.449219 392.570312 C 691.660156 392.601562 691.871094 392.621094 692.078125 392.621094 L 692.648438 392.621094 C 693.871094 392.621094 694.839844 392.480469 695.570312 392.199219 C 696.300781 391.917969 696.878906 391.5 697.320312 390.949219 C 697.761719 390.398438 698.089844 389.710938 698.339844 388.878906 C 698.589844 388.050781 698.808594 387.078125 699.019531 385.980469 L 701.679688 374.441406 C 701.75 374.058594 701.808594 373.710938 701.859375 373.378906 C 701.910156 373.050781 701.941406 372.761719 701.941406 372.511719 C 701.941406 371.941406 701.839844 371.5 701.628906 371.171875 C 701.417969 370.839844 701.101562 370.589844 700.660156 370.421875 C 700.21875 370.25 699.667969 370.140625 698.988281 370.089844 C 698.308594 370.039062 697.519531 370 696.609375 369.96875 Z M 680.800781 398.929688 L 688.890625 363.601562 L 698.859375 363.601562 C 699.699219 363.601562 700.570312 363.621094 701.46875 363.648438 C 702.371094 363.679688 703.261719 363.75 704.128906 363.859375 C 705 363.96875 705.839844 364.140625 706.640625 364.359375 C 707.441406 364.578125 708.167969 364.878906 708.828125 365.25 C 709.839844 365.851562 710.53125 366.589844 710.890625 367.488281 C 711.25 368.390625 711.441406 369.339844 711.441406 370.339844 C 711.441406 370.941406 711.398438 371.53125 711.308594 372.128906 C 711.21875 372.730469 711.109375 373.339844 710.96875 373.96875 L 707.320312 389.648438 C 706.449219 393.261719 704.570312 395.808594 701.679688 397.28125 C 700.320312 398 698.917969 398.460938 697.480469 398.648438 C 696.039062 398.839844 694.601562 398.929688 693.167969 398.929688 Z M 680.800781 398.929688 "/></clipPath><clipPath id="219443c449"><path d="M 707.726562 363.359375 L 751.734375 363.359375 L 751.734375 399 L 707.726562 399 Z M 707.726562 363.359375 "/></clipPath><clipPath id="29a195a502"><path d="M 707.949219 398.929688 L 716.039062 363.601562 L 729 363.601562 L 728.949219 384.46875 L 729.058594 384.46875 L 738.769531 363.601562 L 751.609375 363.601562 L 743.511719 398.929688 L 734.738281 398.929688 L 742.050781 371.230469 L 741.949219 371.230469 L 729.101562 398.929688 L 722.261719 398.929688 L 722.308594 371.230469 L 722.210938 371.230469 L 716.667969 398.929688 Z M 707.949219 398.929688 "/></clipPath></defs><g id="f170a5198e"><rect x="0" width="1440" y="0" height="809.999993" style="fill:#ffffff;fill-opacity:1;stroke:none;"/><g clip-rule="nonzero" clip-path="url(#366a04585e)"><g clip-rule="nonzero" clip-path="url(#04b99304df)"><path style=" stroke:none;fill-rule:nonzero;fill:#27244d;fill-opacity:1;" d="M 654 336.75 L 784.992188 336.75 L 784.992188 471.835938 L 654 471.835938 Z M 654 336.75 "/></g></g><g clip-rule="nonzero" clip-path="url(#6d5e13bc7a)"><g clip-rule="nonzero" clip-path="url(#1b337d3c6d)"><path style=" stroke:none;fill-rule:nonzero;fill:#27244d;fill-opacity:1;" d="M 654 336.75 L 784.992188 336.75 L 784.992188 471.835938 L 654 471.835938 Z M 654 336.75 "/></g></g><g clip-rule="nonzero" clip-path="url(#8d51c29ad4)"><g clip-rule="nonzero" clip-path="url(#83aea40ef0)"><path style=" stroke:none;fill-rule:nonzero;fill:#27244d;fill-opacity:1;" d="M 654 336.75 L 784.992188 336.75 L 784.992188 471.835938 L 654 471.835938 Z M 654 336.75 "/></g></g><g clip-rule="nonzero" clip-path="url(#b08bae1038)"><g clip-rule="nonzero" clip-path="url(#97ecebbfeb)"><path style=" stroke:none;fill-rule:nonzero;fill:#27244d;fill-opacity:1;" d="M 654 336.75 L 784.992188 336.75 L 784.992188 471.835938 L 654 471.835938 Z M 654 336.75 "/></g></g><g clip-rule="nonzero" clip-path="url(#5a837d5ca0)"><g clip-rule="nonzero" clip-path="url(#649196e05b)"><path style=" stroke:none;fill-rule:nonzero;fill:#ffffff;fill-opacity:1;" d="M 654 336.75 L 784.992188 336.75 L 784.992188 471.835938 L 654 471.835938 Z M 654 336.75 "/></g></g><g clip-rule="nonzero" clip-path="url(#c9ada85bfc)"><g clip-rule="nonzero" clip-path="url(#5a74ae18f9)"><path style=" stroke:none;fill-rule:nonzero;fill:#ffffff;fill-opacity:1;" d="M 654 336.75 L 784.992188 336.75 L 784.992188 471.835938 L 654 471.835938 Z M 654 336.75 "/></g></g><g clip-rule="nonzero" clip-path="url(#9b529e0e59)"><g clip-rule="nonzero" clip-path="url(#0f9043414f)"><path style=" stroke:none;fill-rule:nonzero;fill:#ffffff;fill-opacity:1;" d="M 654 336.75 L 784.992188 336.75 L 784.992188 471.835938 L 654 471.835938 Z M 654 336.75 "/></g></g><g clip-rule="nonzero" clip-path="url(#78b9e2f5c6)"><g clip-rule="nonzero" clip-path="url(#27ed10b977)"><path style=" stroke:none;fill-rule:nonzero;fill:#bf5422;fill-opacity:1;" d="M 654 336.75 L 784.992188 336.75 L 784.992188 471.835938 L 654 471.835938 Z M 654 336.75 "/></g></g><g clip-rule="nonzero" clip-path="url(#5ee88476d1)"><g clip-rule="nonzero" clip-path="url(#0c0d2d57cd)"><path style=" stroke:none;fill-rule:nonzero;fill:#ffffff;fill-opacity:1;" d="M 654 336.75 L 784.992188 336.75 L 784.992188 471.835938 L 654 471.835938 Z M 654 336.75 "/></g></g><g clip-rule="nonzero" clip-path="url(#219443c449)"><g clip-rule="nonzero" clip-path="url(#29a195a502)"><path style=" stroke:none;fill-rule:nonzero;fill:#ffffff;fill-opacity:1;" d="M 654 336.75 L 784.992188 336.75 L 784.992188 471.835938 L 654 471.835938 Z M 654 336.75 "/></g></g></g></svg>